<?xml version="1.0" encoding="utf-8"?>
<!-- Svg Vector Icons : http://www.onlinewebfonts.com/icon -->
<!DOCTYPE svg PUBLIC "-//W3C//DTD SVG 1.1//EN" "http://www.w3.org/Graphics/SVG/1.1/DTD/svg11.dtd">
<svg version="1.1" xmlns="http://www.w3.org/2000/svg" xmlns:xlink="http://www.w3.org/1999/xlink" x="0px" y="0px" viewBox="0 0 1000 1000" enable-background="new 0 0 1000 1000" xml:space="preserve">
<metadata> Svg Vector Icons : http://www.onlinewebfonts.com/icon </metadata>
<g><path d="M500,10C229.4,10,10,229.4,10,500c0,270.6,219.4,490,490,490s490-219.4,490-490C990,229.4,770.6,10,500,10L500,10z M725.3,525L410.5,711c-3.6,2.1-7.6,3.2-11.6,3.2c-4,0-8-1-11.6-3.2c-7.2-4.3-11.6-12.1-11.6-20.6V318.2c0-8.5,4.4-16.4,11.6-20.6c7.2-4.3,16.1-4.3,23.3,0l314.8,186.1c7.2,4.3,11.6,12.1,11.6,20.6C736.9,512.8,732.5,520.7,725.3,525L725.3,525z"/></g>
</svg>