<?xml version="1.0" encoding="utf-8"?>
<!-- Svg Vector Icons : http://www.onlinewebfonts.com/icon -->
<!DOCTYPE svg PUBLIC "-//W3C//DTD SVG 1.1//EN" "http://www.w3.org/Graphics/SVG/1.1/DTD/svg11.dtd">
<svg version="1.1" xmlns="http://www.w3.org/2000/svg" xmlns:xlink="http://www.w3.org/1999/xlink" x="0px" y="0px" viewBox="0 0 1000 1000" enable-background="new 0 0 1000 1000" xml:space="preserve">
<metadata> Svg Vector Icons : http://www.onlinewebfonts.com/icon </metadata>
<g><g transform="translate(0.000000,511.000000) scale(0.100000,-0.100000)"><path d="M360.1,3650c-104-30-172.1-86-218.1-182.1l-42-86V106.8c0-2736.9,4-3287.1,28-3341.1c32-78,122-164.1,198.1-192.1c40-16,1460.5-22,4677.6-22c3835.3,0,4631.5,4,4685.5,28c86,34,190.1,156,204.1,236.1c6,36,8,1538.5,6,3339.1l-6,3271.1l-54,82c-28,44-86,96-130,118c-74,38-196.1,38-4677.5,42C2018.6,3670,406.1,3664,360.1,3650z M3985.3,759l6-2116.7L5009.6,759L6028,2873.7h318.1h316.1l2-2124.7v-2126.7l80,160.1c44,88,488.2,1042.3,986.3,2120.7l906.3,1960.6l312.1,6c174.1,2,314.1-2,314.1-10c0-10-584.2-1254.4-1298.4-2766.9L6666.2-2658.1h-316.1H6032l-10,2116.7l-10,2114.7L4991.6-547.4L3971.3-2668.1h-314.1h-316.1l-4,2130.7l-6,2132.7L2346.7-531.4l-984.3-2126.7l-314.1-6c-292.1-4-312.1-2-302.1,30c8,34,2496.8,5317.8,2564.9,5447.8l32,60h318.1h320.1L3985.3,759z"/></g></g>
</svg>