<?xml version="1.0" encoding="utf-8"?>
<!-- Svg Vector Icons : http://www.onlinewebfonts.com/icon -->
<!DOCTYPE svg PUBLIC "-//W3C//DTD SVG 1.1//EN" "http://www.w3.org/Graphics/SVG/1.1/DTD/svg11.dtd">
<svg version="1.1" xmlns="http://www.w3.org/2000/svg" xmlns:xlink="http://www.w3.org/1999/xlink" x="0px" y="0px" viewBox="0 0 1000 1000" enable-background="new 0 0 1000 1000" xml:space="preserve">
<metadata> Svg Vector Icons : http://www.onlinewebfonts.com/icon </metadata>
<g><g transform="translate(0.000000,511.000000) scale(0.100000,-0.100000)"><path d="M360.1,3650c-104-30-172.1-86-218.1-182.1l-42-86V106.8c0-2736.9,4-3287.1,28-3341.1c32-78,122-164.1,198.1-192.1c40-16,1460.5-22,4677.6-22c3835.3,0,4631.5,4,4685.5,28c86,34,190.1,156,204.1,236.1c6,36,8,1538.5,6,3339.1l-6,3271.1l-54,82c-28,44-86,96-130,118c-74,38-196.1,38-4677.5,42C2018.6,3670,406.1,3664,360.1,3650z M5321.7,422.9v-2450.8h1660.6h1660.5v1070.4V114.8l316.1-6l314.1-6l6-1386.5l4-1384.5H6982.3H4681.5v2460.8v2460.8H3021H1360.4V1183.2V112.8h-320.1H720.2v1380.5v1380.5H3021h2300.8V422.9z"/></g></g>
</svg>