<?xml version="1.0" encoding="utf-8"?>
<!-- Svg Vector Icons : http://www.onlinewebfonts.com/icon -->
<!DOCTYPE svg PUBLIC "-//W3C//DTD SVG 1.1//EN" "http://www.w3.org/Graphics/SVG/1.1/DTD/svg11.dtd">
<svg version="1.1" xmlns="http://www.w3.org/2000/svg" xmlns:xlink="http://www.w3.org/1999/xlink" x="0px" y="0px" viewBox="0 0 1000 1000" enable-background="new 0 0 1000 1000" xml:space="preserve">
<metadata> Svg Vector Icons : http://www.onlinewebfonts.com/icon </metadata>
<g><g transform="translate(0.000000,511.000000) scale(0.100000,-0.100000)"><path d="M360.1,3650c-104-30-172.1-86-218.1-182.1l-42-86V106.8c0-2736.9,4-3287.1,28-3341.1c32-78,122-164.1,198.1-192.1c40-16,1460.5-22,4677.6-22c3835.3,0,4631.5,4,4685.5,28c86,34,190.1,156,204.1,236.1c6,36,8,1538.5,6,3339.1l-6,3271.1l-54,82c-28,44-86,96-130,118c-74,38-196.1,38-4677.5,42C2018.6,3670,406.1,3664,360.1,3650z M5001.6,543C6082-733.5,6972.3-1779.8,6980.3-1781.8c6-2,384.1,424.1,840.3,946.3l826.3,948.3h310.1c170,0,306.1-8,302.1-18c-10-30-2264.8-2742.9-2278.7-2742.9c-6,0-898.3,1044.4-1978.7,2320.8C3919.3,949.1,3029,1993.4,3021,1993.4c-6,0-382.1-422.1-832.3-940.3l-818.3-938.3l-318.1-2H734.2l48,60C976.3,420.9,3013,2869.7,3023,2867.7C3029,2865.7,3919.3,1819.4,5001.6,543z"/></g></g>
</svg>